<?xml version="1.0" encoding="UTF-8" standalone="no"?>
<!-- Created with Inkscape (http://www.inkscape.org/) -->

<svg
   xmlns:dc="http://purl.org/dc/elements/1.1/"
   xmlns:cc="http://creativecommons.org/ns#"
   xmlns:rdf="http://www.w3.org/1999/02/22-rdf-syntax-ns#"
   xmlns:svg="http://www.w3.org/2000/svg"
   xmlns="http://www.w3.org/2000/svg"
   xmlns:sodipodi="http://sodipodi.sourceforge.net/DTD/sodipodi-0.dtd"
   xmlns:inkscape="http://www.inkscape.org/namespaces/inkscape"
   width="300"
   height="300"
   id="svg2"
   version="1.1"
   inkscape:version="0.48.5 r10040"
   sodipodi:docname="shut.svg">
  <defs
     id="defs4" />
  <sodipodi:namedview
     id="base"
     pagecolor="#ffffff"
     bordercolor="#666666"
     borderopacity="1.0"
     inkscape:pageopacity="0.0"
     inkscape:pageshadow="2"
     inkscape:zoom="0.98994949"
     inkscape:cx="-17.452728"
     inkscape:cy="60.99143"
     inkscape:document-units="px"
     inkscape:current-layer="layer1"
     showgrid="false"
     inkscape:window-width="1366"
     inkscape:window-height="745"
     inkscape:window-x="-8"
     inkscape:window-y="1296"
     inkscape:window-maximized="1" />
  <metadata
     id="metadata7">
    <rdf:RDF>
      <cc:Work
         rdf:about="">
        <dc:format>image/svg+xml</dc:format>
        <dc:type
           rdf:resource="http://purl.org/dc/dcmitype/StillImage" />
        <dc:title></dc:title>
      </cc:Work>
    </rdf:RDF>
  </metadata>
  <g
     inkscape:label="Layer 1"
     inkscape:groupmode="layer"
     id="layer1"
     transform="translate(0,-752.36218)">
    <path
       style="font-size:medium;font-style:normal;font-variant:normal;font-weight:normal;font-stretch:normal;text-indent:0;text-align:start;text-decoration:none;line-height:normal;letter-spacing:normal;word-spacing:normal;text-transform:none;direction:ltr;block-progression:tb;writing-mode:lr-tb;text-anchor:start;baseline-shift:baseline;color:#000000;fill:#ffffff;fill-opacity:1;stroke:none;stroke-width:8;marker:none;visibility:visible;display:inline;overflow:visible;enable-background:accumulate;font-family:Sans;-inkscape-font-specification:Sans"
       d="m 147.46875,799.9375 c -8.91959,0 -16.21875,7.3304 -16.21875,16.25 l 0,24.46875 c 0,8.9196 7.29915,16.25 16.21875,16.25 8.9196,0 16.25,-7.33041 16.25,-16.25 l 0,-24.46875 c 0,-8.9196 -7.3304,-16.25 -16.25,-16.25 z m 0,8 c 4.5911,0 8.25,3.6589 8.25,8.25 l 0,24.46875 c 0,4.59109 -3.6589,8.25 -8.25,8.25 -4.59108,0 -8.21875,-3.65892 -8.21875,-8.25 l 0,-24.46875 c 0,-4.5911 3.62766,-8.25 8.21875,-8.25 z m -60.5625,17.125 c -4.15697,1.7e-4 -8.320297,1.57181 -11.46875,4.71875 l 0,0.0312 c -6.302299,6.30515 -6.313874,16.63978 0,22.9375 l 17.28125,17.3125 c 6.313326,6.29718 16.6657,6.30305 22.96875,0 6.31137,-6.31137 6.31136,-16.65738 0,-22.96875 L 98.375,829.78125 c -3.155686,-3.15569 -7.304074,-4.71892 -11.46875,-4.71875 z m 121.15625,0 c -4.16467,-1.7e-4 -8.34431,1.56306 -11.5,4.71875 l -17.3125,17.3125 c -6.31136,6.31137 -6.31137,16.65738 0,22.96875 a 4.0004,4.0004 0 0 0 0.0312,0 c 6.31333,6.29718 16.63445,6.30305 22.9375,0 l 17.3125,-17.3125 c 6.31966,-6.30349 6.31965,-16.66525 0,-22.96875 -3.15055,-3.15862 -7.30408,-4.71858 -11.46875,-4.71875 z M 86.90625,833 c 2.098094,1.7e-4 4.183151,0.80815 5.8125,2.4375 l 17.3125,17.3125 c 3.2587,3.25871 3.25869,8.39756 0,11.65625 -3.24255,3.24255 -8.3995,3.24842 -11.65625,0 l -17.28125,-17.3125 a 4.0004,4.0004 0 0 0 -0.03125,0 c -3.250405,-3.24209 -3.25041,-8.41415 0,-11.65625 a 4.0004,4.0004 0 0 0 0.03125,0 c 1.62226,-1.62642 3.714406,-2.43767 5.8125,-2.4375 z m 121.15625,0 c 2.09809,-1.7e-4 4.19024,0.81108 5.8125,2.4375 3.25041,3.2421 3.2504,8.41416 0,11.65625 l -17.3125,17.3125 c -3.24255,3.24255 -8.3995,3.24842 -11.65625,0 -3.25869,-3.25869 -3.2587,-8.39754 0,-11.65625 l 17.3125,-17.3125 c 1.62935,-1.62935 3.74566,-2.43733 5.84375,-2.4375 z m -146.25,52.625 c -8.9196,0 -16.21875,7.29918 -16.21875,16.21875 0,8.91961 7.29915,16.25 16.21875,16.25 l 24.46875,0 c 8.919601,0 16.25,-7.33039 16.25,-16.25 0,-8.91957 -7.330399,-16.21875 -16.25,-16.21875 l -24.46875,0 z m 146.875,0 c -8.92792,0 -16.25,7.30402 -16.25,16.21875 0,8.91478 7.32208,16.25 16.25,16.25 l 24.46875,0 c 8.92792,0 16.21875,-7.33522 16.21875,-16.25 0,-8.91473 -7.29083,-16.21875 -16.21875,-16.21875 l -24.46875,0 z m -146.875,8 24.46875,0 c 4.591089,0 8.25,3.62772 8.25,8.21875 0,4.59113 -3.658911,8.25 -8.25,8.25 l -24.46875,0 c -4.591088,0 -8.21875,-3.65887 -8.21875,-8.25 0,-4.59103 3.627662,-8.21875 8.21875,-8.21875 z m 146.875,0 24.46875,0 c 4.60724,0 8.21875,3.62288 8.21875,8.21875 0,4.59596 -3.61151,8.25 -8.21875,8.25 l -24.46875,0 c -4.60724,0 -8.25,-3.65404 -8.25,-8.25 0,-4.59587 3.64276,-8.21875 8.25,-8.21875 z m -104.46875,35.28125 c -4.16238,-1.7e-4 -8.343337,1.57016 -11.5,4.71875 L 75.4375,950.9375 c -6.305582,6.30559 -6.299879,16.63479 0,22.9375 l 0,0.0312 c 6.302742,6.29972 16.631966,6.30554 22.9375,0 l 17.3125,-17.3125 c 6.30897,-6.30897 6.30897,-16.65978 0,-22.96875 -3.15153,-3.15153 -7.30637,-4.71858 -11.46875,-4.71875 z m 86.53125,0 c -4.16309,0 -8.34552,1.56427 -11.5,4.71875 -6.30897,6.30897 -6.30897,16.65978 0,22.96875 l 17.3125,17.3125 c 6.31137,6.31137 16.66766,6.31724 22.96875,0 6.31723,-6.30107 6.31136,-16.65738 0,-22.96875 l -17.3125,-17.3125 c -3.15448,-3.15448 -7.30566,-4.71875 -11.46875,-4.71875 z m -86.53125,7.9375 c 2.1004,-1.7e-4 4.19123,0.81623 5.8125,2.4375 3.26109,3.26109 3.26109,8.39516 0,11.65625 L 92.71875,968.25 c -3.258697,3.2587 -8.380479,3.25284 -11.625,0 a 4.0004,4.0004 0 0 0 -0.03125,0 c -3.252832,-3.24451 -3.227455,-8.39754 0.03125,-11.65625 L 98.375,939.28125 c 1.62838,-1.62421 3.74335,-2.43733 5.84375,-2.4375 z m 86.53125,0 c 2.09662,0 4.18194,0.80694 5.8125,2.4375 l 17.3125,17.3125 c 3.2587,3.25871 3.25283,8.41174 0,11.65625 -3.24453,3.25284 -8.39754,3.25871 -11.65625,0 l -17.3125,-17.3125 c -3.26109,-3.26109 -3.26109,-8.39516 0,-11.65625 1.63056,-1.63056 3.74713,-2.4375 5.84375,-2.4375 z m -43.28125,9.96875 c -8.91477,0 -16.21875,7.29081 -16.21875,16.21875 l 0,24.46875 c 0,8.9279 7.30398,16.25 16.21875,16.25 8.91477,0 16.25,-7.32211 16.25,-16.25 l 0,-24.46875 c 0,-8.92794 -7.33522,-16.21875 -16.25,-16.21875 z m 0,8 c 4.59592,0 8.25,3.61147 8.25,8.21875 l 0,24.46875 c 0,4.60719 -3.65407,8.25 -8.25,8.25 -4.59591,0 -8.21875,-3.64282 -8.21875,-8.25 l 0,-24.46875 c 0,-4.60728 3.62284,-8.21875 8.21875,-8.21875 z"
       id="path4080"
       inkscape:connector-curvature="0" />
  </g>
</svg>
