<?xml version="1.0" encoding="UTF-8" standalone="no"?>
<!-- Created with Inkscape (http://www.inkscape.org/) -->

<svg
   xmlns:dc="http://purl.org/dc/elements/1.1/"
   xmlns:cc="http://creativecommons.org/ns#"
   xmlns:rdf="http://www.w3.org/1999/02/22-rdf-syntax-ns#"
   xmlns:svg="http://www.w3.org/2000/svg"
   xmlns="http://www.w3.org/2000/svg"
   xmlns:sodipodi="http://sodipodi.sourceforge.net/DTD/sodipodi-0.dtd"
   xmlns:inkscape="http://www.inkscape.org/namespaces/inkscape"
   width="300"
   height="300"
   id="svg2"
   version="1.1"
   inkscape:version="0.48.5 r10040"
   sodipodi:docname="fish.svg">
  <defs
     id="defs4" />
  <sodipodi:namedview
     id="base"
     pagecolor="#ffffff"
     bordercolor="#666666"
     borderopacity="1.0"
     inkscape:pageopacity="0.0"
     inkscape:pageshadow="2"
     inkscape:zoom="0.98994949"
     inkscape:cx="-17.452728"
     inkscape:cy="60.99143"
     inkscape:document-units="px"
     inkscape:current-layer="layer1"
     showgrid="false"
     inkscape:window-width="1366"
     inkscape:window-height="745"
     inkscape:window-x="-8"
     inkscape:window-y="1296"
     inkscape:window-maximized="1" />
  <metadata
     id="metadata7">
    <rdf:RDF>
      <cc:Work
         rdf:about="">
        <dc:format>image/svg+xml</dc:format>
        <dc:type
           rdf:resource="http://purl.org/dc/dcmitype/StillImage" />
        <dc:title></dc:title>
      </cc:Work>
    </rdf:RDF>
  </metadata>
  <g
     inkscape:label="Layer 1"
     inkscape:groupmode="layer"
     id="layer1"
     transform="translate(0,-752.36218)">
    <path
       style="font-size:medium;font-style:normal;font-variant:normal;font-weight:normal;font-stretch:normal;text-indent:0;text-align:start;text-decoration:none;line-height:normal;letter-spacing:normal;word-spacing:normal;text-transform:none;direction:ltr;block-progression:tb;writing-mode:lr-tb;text-anchor:start;baseline-shift:baseline;color:#000000;fill:#ffffff;fill-opacity:1;stroke:none;stroke-width:8;marker:none;visibility:visible;display:inline;overflow:visible;enable-background:accumulate;font-family:Sans;-inkscape-font-specification:Sans"
       d="m 81.17013,804.1508 c -16.629309,-0.18983 -29.73704,2.9071 -46.138767,6.99233 -1.619426,0.39919 -2.78641,2.13752 -2.542664,3.78751 9.959401,65.10479 38.603702,106.64516 81.426321,127.61365 29.01912,14.20948 67.16389,18.37639 100.00339,16.84148 -0.16294,13.91204 -1.76917,27.33699 -4.60858,39.49075 -0.32077,1.33418 0.26465,2.83858 1.40283,3.60498 1.13818,0.7664 2.7523,0.7431 3.8679,-0.056 2.50457,-1.7847 5.56094,-4.86746 9.34959,-8.87284 3.78866,-4.00546 8.17944,-8.88296 12.71332,-13.98469 9.06776,-10.20339 18.7601,-21.29649 25.08233,-27.54554 1.03209,-1.0348 1.2723,-2.7706 0.56001,-4.04679 -0.71229,-1.27619 -2.31579,-1.98296 -3.73834,-1.64772 -12.393,2.9902 -25.15304,4.8976 -37.98105,5.87992 -0.50271,-21.75984 -4.36266,-44.27679 -12.73981,-65.07632 -14.90185,-36.99966 -44.00157,-68.44088 -91.42998,-78.58423 -13.9998,-2.98014 -25.248914,-4.28279 -35.2265,-4.39669 z m -0.105945,6.70098 c 9.471406,0.1272 20.222855,1.40531 33.902195,4.31723 45.20015,9.6668 72.29033,39.05745 86.55654,74.47889 8.04492,19.97465 11.76449,41.83519 12.23657,62.93094 -31.92423,1.50041 -69.04823,-2.49923 -96.87803,-16.12635 C 76.5562,916.70686 50.018502,878.40736 39.772373,816.99655 c 14.76783,-3.65561 26.582473,-6.34231 41.291812,-6.14477 z M 249.62166,955.04205 c -5.64651,6.1143 -11.83275,13.01238 -18.06351,20.02348 -4.51993,5.08599 -8.86367,9.95034 -12.55441,13.85223 -0.46659,0.49327 -0.61201,0.5437 -1.05944,1.00647 1.67997,-9.85164 2.69844,-20.22487 2.80752,-30.90927 9.72504,-0.73557 19.35698,-2.10323 28.86984,-3.97291 z"
       id="path3769"
       inkscape:connector-curvature="0"
       sodipodi:nodetypes="sccsccscsscsccscsscscscscscccc" />
    <path
       style="font-size:medium;font-style:normal;font-variant:normal;font-weight:normal;font-stretch:normal;text-indent:0;text-align:start;text-decoration:none;line-height:normal;letter-spacing:normal;word-spacing:normal;text-transform:none;direction:ltr;block-progression:tb;writing-mode:lr-tb;text-anchor:start;baseline-shift:baseline;color:#000000;fill:#ffffff;fill-opacity:1;fill-rule:nonzero;stroke:none;stroke-width:5.76314592000000040;marker:none;visibility:visible;display:inline;overflow:visible;enable-background:accumulate;font-family:Sans;-inkscape-font-specification:Sans"
       d="m 82.441462,819.53922 a 2.4425353,2.4425353 0 0 0 -1.854026,0.90053 l -12.713323,15.09707 a 2.4434045,2.4434045 0 1 0 3.734539,3.15184 l 12.713322,-15.09707 a 2.4425353,2.4425353 0 0 0 -1.880512,-4.05237 z"
       id="path3786"
       inkscape:connector-curvature="0" />
    <path
       style="font-size:medium;font-style:normal;font-variant:normal;font-weight:normal;font-stretch:normal;text-indent:0;text-align:start;text-decoration:none;line-height:normal;letter-spacing:normal;word-spacing:normal;text-transform:none;direction:ltr;block-progression:tb;writing-mode:lr-tb;text-anchor:start;baseline-shift:baseline;color:#000000;fill:#ffffff;fill-opacity:1;fill-rule:nonzero;stroke:none;stroke-width:5.76314592000000040;marker:none;visibility:visible;display:inline;overflow:visible;enable-background:accumulate;font-family:Sans;-inkscape-font-specification:Sans"
       d="m 68.112488,820.96947 a 2.4425353,2.4425353 0 0 0 -1.35079,4.34372 l 15.123556,12.71332 a 2.4425353,2.4425353 0 1 0 3.125359,-3.73454 L 69.913542,821.57865 a 2.4425353,2.4425353 0 0 0 -1.801054,-0.60918 z"
       id="path3786-2"
       inkscape:connector-curvature="0" />
    <path
       style="font-size:medium;font-style:normal;font-variant:normal;font-weight:normal;font-stretch:normal;text-indent:0;text-align:start;text-decoration:none;line-height:normal;letter-spacing:normal;word-spacing:normal;text-transform:none;direction:ltr;block-progression:tb;writing-mode:lr-tb;text-anchor:start;baseline-shift:baseline;color:#000000;fill:#ffffff;fill-opacity:1;stroke:none;stroke-width:8;marker:none;visibility:visible;display:inline;overflow:visible;enable-background:accumulate;font-family:Sans;-inkscape-font-specification:Sans"
       d="m 121.19061,820.28083 a 3.3905584,3.3905584 0 0 0 -3.39022,3.0459 c -3.17013,26.90171 -26.947727,47.51621 -52.177594,55.43538 a 3.3905584,3.3905584 0 1 0 2.012942,6.46261 c 27.259789,-8.55633 53.340082,-30.73596 56.918612,-61.10341 a 3.3905584,3.3905584 0 0 0 -3.36374,-3.84048 z"
       id="path3838"
       inkscape:connector-curvature="0" />
    <path
       style="font-size:medium;font-style:normal;font-variant:normal;font-weight:normal;font-stretch:normal;text-indent:0;text-align:start;text-decoration:none;line-height:normal;letter-spacing:normal;word-spacing:normal;text-transform:none;direction:ltr;block-progression:tb;writing-mode:lr-tb;text-anchor:start;baseline-shift:baseline;color:#000000;fill:#ffffff;fill-opacity:1;fill-rule:nonzero;stroke:none;stroke-width:6.05653523999999970;marker:none;visibility:visible;display:inline;overflow:visible;enable-background:accumulate;font-family:Sans;-inkscape-font-specification:Sans"
       d="m 151.43773,858.10296 a 2.5668795,2.5668795 0 0 0 -2.41024,3.36374 c 5.52415,18.05795 2.60169,37.66387 2.93996,57.26292 a 2.5694578,2.5694578 0 1 0 5.1383,-0.0794 c -0.32796,-19.00166 2.81646,-39.18334 -3.15184,-58.69317 a 2.5668795,2.5668795 0 0 0 -2.51618,-1.85402 z"
       id="path3840"
       inkscape:connector-curvature="0" />
    <path
       style="font-size:medium;font-style:normal;font-variant:normal;font-weight:normal;font-stretch:normal;text-indent:0;text-align:start;text-decoration:none;line-height:normal;letter-spacing:normal;word-spacing:normal;text-transform:none;direction:ltr;block-progression:tb;writing-mode:lr-tb;text-anchor:start;baseline-shift:baseline;color:#000000;fill:#ffffff;fill-opacity:1;fill-rule:nonzero;stroke:none;stroke-width:6.05653523999999970;marker:none;visibility:visible;display:inline;overflow:visible;enable-background:accumulate;font-family:Sans;-inkscape-font-specification:Sans"
       d="m 169.20989,873.35895 a 2.5668795,2.5668795 0 0 0 -2.33077,3.2313 c 1.83921,7.27012 0.92232,14.87358 -0.13243,22.83101 -1.05476,7.95743 -2.23521,16.26647 -0.26486,24.73801 a 2.5668795,2.5668795 0 1 0 4.97938,-1.16539 c -1.69513,-7.28827 -0.68613,-14.91012 0.37081,-22.88398 1.05693,-7.97386 2.16946,-16.32013 0.0264,-24.79098 a 2.5668795,2.5668795 0 0 0 -2.64861,-1.95997 z"
       id="path3842"
       inkscape:connector-curvature="0" />
    <path
       style="font-size:medium;font-style:normal;font-variant:normal;font-weight:normal;font-stretch:normal;text-indent:0;text-align:start;text-decoration:none;line-height:normal;letter-spacing:normal;word-spacing:normal;text-transform:none;direction:ltr;block-progression:tb;writing-mode:lr-tb;text-anchor:start;baseline-shift:baseline;color:#000000;fill:#ffffff;fill-opacity:1;fill-rule:nonzero;stroke:none;stroke-width:6.05653523999999970;marker:none;visibility:visible;display:inline;overflow:visible;enable-background:accumulate;font-family:Sans;-inkscape-font-specification:Sans"
       d="m 136.71146,864.38017 a 2.5668795,2.5668795 0 0 0 -2.48969,1.77456 c -5.90669,17.01525 -4.37071,34.68647 -5.95937,51.25059 a 2.568263,2.568263 0 1 0 5.11181,0.50323 c 1.64894,-17.19261 0.24869,-34.39755 5.69451,-50.08519 a 2.5668795,2.5668795 0 0 0 -2.35726,-3.44319 z"
       id="path3844"
       inkscape:connector-curvature="0" />
    <path
       style="font-size:medium;font-style:normal;font-variant:normal;font-weight:normal;font-stretch:normal;text-indent:0;text-align:start;text-decoration:none;line-height:normal;letter-spacing:normal;word-spacing:normal;text-transform:none;direction:ltr;block-progression:tb;writing-mode:lr-tb;text-anchor:start;baseline-shift:baseline;color:#000000;fill:#ffffff;fill-opacity:1;fill-rule:nonzero;stroke:none;stroke-width:6.05653523999999970;marker:none;visibility:visible;display:inline;overflow:visible;enable-background:accumulate;font-family:Sans;-inkscape-font-specification:Sans"
       d="m 116.84689,886.0193 a 2.5691506,2.5691506 0 1 0 0,5.1383 c 22.54983,-0.0458 44.32186,7.45827 66.53306,12.97819 a 2.5668795,2.5668795 0 1 0 1.24485,-4.97939 c -21.90676,-5.44426 -44.095,-13.18529 -67.77791,-13.1371 z"
       id="path3846"
       inkscape:connector-curvature="0" />
    <path
       style="font-size:medium;font-style:normal;font-variant:normal;font-weight:normal;font-stretch:normal;text-indent:0;text-align:start;text-decoration:none;line-height:normal;letter-spacing:normal;word-spacing:normal;text-transform:none;direction:ltr;block-progression:tb;writing-mode:lr-tb;text-anchor:start;baseline-shift:baseline;color:#000000;fill:#ffffff;fill-opacity:1;fill-rule:nonzero;stroke:none;stroke-width:6.05653523999999970;marker:none;visibility:visible;display:inline;overflow:visible;enable-background:accumulate;font-family:Sans;-inkscape-font-specification:Sans"
       d="m 139.25413,873.6503 c -4.56358,-0.0499 -9.08505,0.0282 -13.5344,0.13243 a 2.5696967,2.5696967 0 1 0 0.10595,5.1383 c 17.7447,-0.41572 35.99503,-0.49721 51.38301,7.25719 a 2.5704171,2.5704171 0 0 0 2.33078,-4.5821 c -12.62935,-6.36424 -26.59462,-7.79593 -40.28534,-7.94582 z"
       id="path3848"
       inkscape:connector-curvature="0" />
    <path
       style="font-size:medium;font-style:normal;font-variant:normal;font-weight:normal;font-stretch:normal;text-indent:0;text-align:start;text-decoration:none;line-height:normal;letter-spacing:normal;word-spacing:normal;text-transform:none;direction:ltr;block-progression:tb;writing-mode:lr-tb;text-anchor:start;baseline-shift:baseline;color:#000000;fill:#ffffff;fill-opacity:1;fill-rule:nonzero;stroke:none;stroke-width:6.05653523999999970;marker:none;visibility:visible;display:inline;overflow:visible;enable-background:accumulate;font-family:Sans;-inkscape-font-specification:Sans"
       d="m 129.0305,905.8309 c -2.52012,-0.0986 -5.05547,-0.0828 -7.628,0.0794 a 2.5668795,2.5668795 0 1 0 0.31784,5.11182 c 19.00308,-1.19842 37.53967,6.74002 57.71318,7.76042 a 2.5725615,2.5725615 0 1 0 0.26486,-5.13826 c -16.57585,-0.83843 -33.02708,-7.1236 -50.66788,-7.81339 z"
       id="path3850"
       inkscape:connector-curvature="0" />
  </g>
</svg>
