<?xml version="1.0" encoding="UTF-8" standalone="no"?>
<!-- Created with Inkscape (http://www.inkscape.org/) -->

<svg
   xmlns:dc="http://purl.org/dc/elements/1.1/"
   xmlns:cc="http://creativecommons.org/ns#"
   xmlns:rdf="http://www.w3.org/1999/02/22-rdf-syntax-ns#"
   xmlns:svg="http://www.w3.org/2000/svg"
   xmlns="http://www.w3.org/2000/svg"
   xmlns:sodipodi="http://sodipodi.sourceforge.net/DTD/sodipodi-0.dtd"
   xmlns:inkscape="http://www.inkscape.org/namespaces/inkscape"
   width="300"
   height="300"
   id="svg2"
   version="1.1"
   inkscape:version="0.48.5 r10040"
   sodipodi:docname="New document 1">
  <defs
     id="defs4" />
  <sodipodi:namedview
     id="base"
     pagecolor="#ffffff"
     bordercolor="#666666"
     borderopacity="1.0"
     inkscape:pageopacity="0.0"
     inkscape:pageshadow="2"
     inkscape:zoom="0.98994949"
     inkscape:cx="140.13107"
     inkscape:cy="143.2499"
     inkscape:document-units="px"
     inkscape:current-layer="layer1"
     showgrid="false"
     inkscape:window-width="1366"
     inkscape:window-height="745"
     inkscape:window-x="-8"
     inkscape:window-y="-8"
     inkscape:window-maximized="1" />
  <metadata
     id="metadata7">
    <rdf:RDF>
      <cc:Work
         rdf:about="">
        <dc:format>image/svg+xml</dc:format>
        <dc:type
           rdf:resource="http://purl.org/dc/dcmitype/StillImage" />
        <dc:title></dc:title>
      </cc:Work>
    </rdf:RDF>
  </metadata>
  <g
     inkscape:label="Layer 1"
     inkscape:groupmode="layer"
     id="layer1"
     transform="translate(0,-752.36218)">
    <path
       style="font-size:medium;font-style:normal;font-variant:normal;font-weight:normal;font-stretch:normal;text-indent:0;text-align:start;text-decoration:none;line-height:normal;letter-spacing:normal;word-spacing:normal;text-transform:none;direction:ltr;block-progression:tb;writing-mode:lr-tb;text-anchor:start;baseline-shift:baseline;color:#000000;fill:#ffffff;fill-opacity:1;stroke:none;stroke-width:8;marker:none;visibility:visible;display:inline;overflow:visible;enable-background:accumulate;font-family:Sans;-inkscape-font-specification:Sans"
       d="M 146.96875 57.8125 C 111.18353 57.8125 82.079611 86.90621 82.0625 122.6875 C 56.845051 126.74618 37.40625 146.75155 37.40625 171.375 L 37.40625 175.0625 C 37.40625 202.67477 61.748526 224.65625 91.40625 224.65625 L 127.71875 224.65625 L 130.71875 221.59375 L 125.90625 216.65625 L 91.40625 216.65625 C 65.663974 216.65625 45.40625 197.96601 45.40625 175.0625 L 45.40625 171.375 C 45.40625 149.93842 63.145269 132.17487 86.53125 129.96875 A 4.0004 4.0004 0 0 0 90.15625 125.78125 C 90.10114 124.74595 90.0625 123.73614 90.0625 122.71875 C 90.0625 91.24774 115.49774 65.8125 146.96875 65.8125 C 178.43976 65.8125 203.875 91.24774 203.875 122.71875 C 203.875 123.70814 203.83465 124.69417 203.78125 125.71875 A 4.0004 4.0004 0 0 0 207.46875 129.90625 C 231.3216 131.71178 249.5625 149.65094 249.5625 171.375 L 249.5625 175.0625 C 249.5625 197.96601 229.30478 216.65625 203.5625 216.65625 L 171.6875 216.65625 L 166.875 221.59375 L 169.875 224.65625 L 203.5625 224.65625 C 233.22022 224.65625 257.5625 202.67477 257.5625 175.0625 L 257.5625 171.375 C 257.5625 146.41617 237.59414 126.23223 211.875 122.5625 C 211.7896 86.83905 182.71187 57.8125 146.96875 57.8125 z "
       transform="translate(0,752.36218)"
       id="rect2985" />
    <path
       style="font-size:medium;font-style:normal;font-variant:normal;font-weight:normal;font-stretch:normal;text-indent:0;text-align:start;text-decoration:none;line-height:normal;letter-spacing:normal;word-spacing:normal;text-transform:none;direction:ltr;block-progression:tb;writing-mode:lr-tb;text-anchor:start;baseline-shift:baseline;color:#000000;fill:#ffffff;fill-opacity:1;stroke:none;stroke-width:16;marker:none;visibility:visible;display:inline;overflow:visible;enable-background:accumulate;font-family:Sans;-inkscape-font-specification:Sans"
       d="m 123.40022,942.08976 a 4.9423372,4.9505758 0 0 0 -3.51334,8.46928 l 22.50856,23.08749 -23.78263,24.40233 a 4.9554457,4.9637062 0 0 0 7.1039,6.92244 l 23.58958,-24.20904 22.97185,23.55154 a 4.9423372,4.9505758 0 1 0 7.06529,-6.92239 l -23.12628,-23.70621 21.89082,-22.46873 a 4.9423372,4.9505758 0 0 0 -3.66777,-8.46928 4.9423372,4.9505758 0 0 0 -3.39752,1.5469 l -21.73639,22.27536 -22.35412,-22.93279 a 4.9423372,4.9505758 0 0 0 -3.55195,-1.5469 z"
       id="path3760"
       inkscape:connector-curvature="0" />
  </g>
</svg>
